REM DIRINDEX 1\2,1\3,1\4
REM DIRNAME cjc151,folder01,folder02,folder03
TITLE ""
FILE "155 155_TOEFL_3900.mp3" MP3
  TRACK 01 AUDIO
    TITLE "2:cjc151_6751"
    INDEX 01 00:00:00
  TRACK 02 AUDIO
    TITLE "0:"
    INDEX 01 00:01:54
  TRACK 03 AUDIO
    TITLE "3:cjc151_6752"
    INDEX 01 00:03:41
  TRACK 04 AUDIO
    TITLE "0:"
    INDEX 01 00:08:01
  TRACK 05 AUDIO
    TITLE "2:cjc151_6753"
    INDEX 01 00:09:55
  TRACK 06 AUDIO
    TITLE "0:"
    INDEX 01 00:11:19
  TRACK 07 AUDIO
    TITLE "3:cjc151_6754"
    INDEX 01 00:12:73
  TRACK 08 AUDIO
    TITLE "0:"
    INDEX 01 00:16:48
  TRACK 09 AUDIO
    TITLE "2:cjc151_6755"
    INDEX 01 00:18:27
  TRACK 10 AUDIO
    TITLE "0:"
    INDEX 01 00:19:67
  TRACK 11 AUDIO
    TITLE "3:cjc151_6756"
    INDEX 01 00:21:45
  TRACK 12 AUDIO
    TITLE "0:"
    INDEX 01 00:26:28
  TRACK 13 AUDIO
    TITLE "2:cjc151_6757"
    INDEX 01 00:28:08
  TRACK 14 AUDIO
    TITLE "0:"
    INDEX 01 00:29:29
  TRACK 15 AUDIO
    TITLE "3:cjc151_6758"
    INDEX 01 00:31:06
  TRACK 16 AUDIO
    TITLE "0:"
    INDEX 01 00:35:14
  TRACK 17 AUDIO
    TITLE "2:cjc151_6759"
    INDEX 01 00:36:66
  TRACK 18 AUDIO
    TITLE "0:"
    INDEX 01 00:38:33
  TRACK 19 AUDIO
    TITLE "3:cjc151_6760"
    INDEX 01 00:40:13
  TRACK 20 AUDIO
    TITLE "0:"
    INDEX 01 00:45:02
  TRACK 21 AUDIO
    TITLE "2:cjc151_6761"
    INDEX 01 00:46:54
  TRACK 22 AUDIO
    TITLE "0:"
    INDEX 01 00:48:57
  TRACK 23 AUDIO
    TITLE "3:cjc151_6762"
    INDEX 01 00:50:35
  TRACK 24 AUDIO
    TITLE "0:"
    INDEX 01 00:54:72
  TRACK 25 AUDIO
    TITLE "2:cjc151_6763"
    INDEX 01 00:56:51
  TRACK 26 AUDIO
    TITLE "0:"
    INDEX 01 00:57:60
  TRACK 27 AUDIO
    TITLE "3:cjc151_6764"
    INDEX 01 00:59:39
  TRACK 28 AUDIO
    TITLE "0:"
    INDEX 01 01:04:05
  TRACK 29 AUDIO
    TITLE "2:cjc151_6765"
    INDEX 01 01:05:60
  TRACK 30 AUDIO
    TITLE "0:"
    INDEX 01 01:07:21
  TRACK 31 AUDIO
    TITLE "3:cjc151_6766"
    INDEX 01 01:08:72
  TRACK 32 AUDIO
    TITLE "0:"
    INDEX 01 01:13:00
  TRACK 33 AUDIO
    TITLE "2:cjc151_6767"
    INDEX 01 01:14:55
  TRACK 34 AUDIO
    TITLE "0:"
    INDEX 01 01:16:60
  TRACK 35 AUDIO
    TITLE "3:cjc151_6768"
    INDEX 01 01:18:35
  TRACK 36 AUDIO
    TITLE "0:"
    INDEX 01 01:22:29
  TRACK 37 AUDIO
    TITLE "2:cjc151_6769"
    INDEX 01 01:24:08
  TRACK 38 AUDIO
    TITLE "0:"
    INDEX 01 01:26:05
  TRACK 39 AUDIO
    TITLE "3:cjc151_6770"
    INDEX 01 01:27:51
  TRACK 40 AUDIO
    TITLE "0:"
    INDEX 01 01:32:19
  TRACK 41 AUDIO
    TITLE "2:cjc151_6771"
    INDEX 01 01:33:72
  TRACK 42 AUDIO
    TITLE "0:"
    INDEX 01 01:35:12
  TRACK 43 AUDIO
    TITLE "3:cjc151_6772"
    INDEX 01 01:36:64
  TRACK 44 AUDIO
    TITLE "0:"
    INDEX 01 01:41:36
  TRACK 45 AUDIO
    TITLE "2:cjc151_6773"
    INDEX 01 01:43:13
  TRACK 46 AUDIO
    TITLE "0:"
    INDEX 01 01:44:60
  TRACK 47 AUDIO
    TITLE "3:cjc151_6774"
    INDEX 01 01:46:37
  TRACK 48 AUDIO
    TITLE "0:"
    INDEX 01 01:50:47
  TRACK 49 AUDIO
    TITLE "2:cjc151_6775"
    INDEX 01 01:52:20
  TRACK 50 AUDIO
    TITLE "0:"
    INDEX 01 01:53:47
  TRACK 51 AUDIO
    TITLE "3:cjc151_6776"
    INDEX 01 01:55:24
  TRACK 52 AUDIO
    TITLE "0:"
    INDEX 01 01:59:18
  TRACK 53 AUDIO
    TITLE "2:cjc151_6777"
    INDEX 01 02:00:71
  TRACK 54 AUDIO
    TITLE "0:"
    INDEX 01 02:02:50
  TRACK 55 AUDIO
    TITLE "3:cjc151_6778"
    INDEX 01 02:04:25
  TRACK 56 AUDIO
    TITLE "0:"
    INDEX 01 02:08:23
  TRACK 57 AUDIO
    TITLE "2:cjc151_6779"
    INDEX 01 02:10:00
  TRACK 58 AUDIO
    TITLE "0:"
    INDEX 01 02:11:06
  TRACK 59 AUDIO
    TITLE "3:cjc151_6780"
    INDEX 01 02:12:58
  TRACK 60 AUDIO
    TITLE "0:"
    INDEX 01 02:17:44
  TRACK 61 AUDIO
    TITLE "2:cjc151_6781"
    INDEX 01 02:19:19
  TRACK 62 AUDIO
    TITLE "0:"
    INDEX 01 02:21:06
  TRACK 63 AUDIO
    TITLE "3:cjc151_6782"
    INDEX 01 02:22:60
  TRACK 64 AUDIO
    TITLE "0:"
    INDEX 01 02:27:01
  TRACK 65 AUDIO
    TITLE "2:cjc151_6783"
    INDEX 01 02:28:55
  TRACK 66 AUDIO
    TITLE "0:"
    INDEX 01 02:32:29
  TRACK 67 AUDIO
    TITLE "3:cjc151_6784"
    INDEX 01 02:34:05
  TRACK 68 AUDIO
    TITLE "0:"
    INDEX 01 02:38:30
  TRACK 69 AUDIO
    TITLE "2:cjc151_6785"
    INDEX 01 02:40:07
  TRACK 70 AUDIO
    TITLE "0:"
    INDEX 01 02:41:50
  TRACK 71 AUDIO
    TITLE "3:cjc151_6786"
    INDEX 01 02:43:27
  TRACK 72 AUDIO
    TITLE "0:"
    INDEX 01 02:47:21
  TRACK 73 AUDIO
    TITLE "2:cjc151_6787"
    INDEX 01 02:49:00
  TRACK 74 AUDIO
    TITLE "0:"
    INDEX 01 02:50:27
  TRACK 75 AUDIO
    TITLE "3:cjc151_6788"
    INDEX 01 02:52:05
  TRACK 76 AUDIO
    TITLE "0:"
    INDEX 01 02:55:64
  TRACK 77 AUDIO
    TITLE "2:cjc151_6789"
    INDEX 01 02:57:39
  TRACK 78 AUDIO
    TITLE "0:"
    INDEX 01 02:58:64
  TRACK 79 AUDIO
    TITLE "3:cjc151_6790"
    INDEX 01 03:00:43
  TRACK 80 AUDIO
    TITLE "0:"
    INDEX 01 03:04:57
  TRACK 81 AUDIO
    TITLE "2:cjc151_6791"
    INDEX 01 03:06:32
  TRACK 82 AUDIO
    TITLE "0:"
    INDEX 01 03:08:19
  TRACK 83 AUDIO
    TITLE "3:cjc151_6792"
    INDEX 01 03:09:72
  TRACK 84 AUDIO
    TITLE "0:"
    INDEX 01 03:14:28
  TRACK 85 AUDIO
    TITLE "2:cjc151_6793"
    INDEX 01 03:16:03
  TRACK 86 AUDIO
    TITLE "0:"
    INDEX 01 03:18:65
  TRACK 87 AUDIO
    TITLE "3:cjc151_6794"
    INDEX 01 03:20:50
  TRACK 88 AUDIO
    TITLE "0:"
    INDEX 01 03:25:61
